HIERARCHY
ROOT Hips
{
    OFFSET   0.000000   0.000000   0.000000
    CHANNELS 6 Xposition Yposition Zposition Zrotation Xrotation Yrotation
    JOINT Chest
    {
        OFFSET   0.000000   8.007230   0.000000
        CHANNELS 3 Zrotation Xrotation Yrotation
        JOINT Chest2
        {
            OFFSET   0.000000  22.077100   0.000000
            CHANNELS 3 Zrotation Xrotation Yrotation
            JOINT Neck
            {
                OFFSET   0.000000  23.254800  -0.000021
                CHANNELS 3 Zrotation Xrotation Yrotation
                JOINT Head
                {
                    OFFSET   0.000000  14.370000   1.956610
                    CHANNELS 3 Zrotation Xrotation Yrotation
                    End Site
                    {
                        OFFSET   0.000000  19.566000   0.000000
                    }
                }
            }
            JOINT LeftCollar
            {
                OFFSET   3.911900  19.017000  -0.467063
                CHANNELS 3 Zrotation Xrotation Yrotation
                JOINT LeftShoulder
                {
                    OFFSET  10.383700   0.000000   0.000000
                    CHANNELS 3 Zrotation Xrotation Yrotation
                    JOINT LeftElbow
                    {
                        OFFSET  26.662100   0.001529   0.000325
                        CHANNELS 3 Zrotation Xrotation Yrotation
                        JOINT LeftWrist
                        {
                            OFFSET  28.869000  -0.000011  -0.000096
                            CHANNELS 3 Zrotation Xrotation Yrotation
                            JOINT LeftFinger0
                            {
                                OFFSET   2.044650  -2.323460   3.252850
                                CHANNELS 3 Zrotation Xrotation Yrotation
                                JOINT LeftFinger01
                                {
                                    OFFSET   3.088130   0.000000   0.000000
                                    CHANNELS 3 Zrotation Xrotation Yrotation
                                    JOINT LeftFinger02
                                    {
                                        OFFSET   2.639460   0.000000   0.000000
                                        CHANNELS 3 Zrotation Xrotation Yrotation
                                        End Site
                                        {
                                            OFFSET   2.582190   0.000000   0.000000
                                        }
                                    }
                                }
                            }
                            JOINT LeftFinger1
                            {
                                OFFSET   8.364480   0.000000   3.252850
                                CHANNELS 3 Zrotation Xrotation Yrotation
                                JOINT LeftFinger11
                                {
                                    OFFSET   4.646930   0.000000   0.000000
                                    CHANNELS 3 Zrotation Xrotation Yrotation
                                    JOINT LeftFinger12
                                    {
                                        OFFSET   2.323460   0.000000   0.000000
                                        CHANNELS 3 Zrotation Xrotation Yrotation
                                        End Site
                                        {
                                            OFFSET   2.273050   0.000000   0.000000
                                        }
                                    }
                                }
                            }
                            JOINT LeftFinger2
                            {
                                OFFSET   8.364480   0.000016   1.078090
                                CHANNELS 3 Zrotation Xrotation Yrotation
                                JOINT LeftFinger21
                                {
                                    OFFSET   5.111620   0.000000   0.000000
                                    CHANNELS 3 Zrotation Xrotation Yrotation
                                    JOINT LeftFinger22
                                    {
                                        OFFSET   2.788160   0.000017   0.000000
                                        CHANNELS 3 Zrotation Xrotation Yrotation
                                        End Site
                                        {
                                            OFFSET   2.727660   0.000000   0.000000
                                        }
                                    }
                                }
                            }
                            JOINT LeftFinger3
                            {
                                OFFSET   7.899780   0.000015  -1.078090
                                CHANNELS 3 Zrotation Xrotation Yrotation
                                JOINT LeftFinger31
                                {
                                    OFFSET   4.646920   0.000000   0.000000
                                    CHANNELS 3 Zrotation Xrotation Yrotation
                                    JOINT LeftFinger32
                                    {
                                        OFFSET   2.323470   0.000000   0.000000
                                        CHANNELS 3 Zrotation Xrotation Yrotation
                                        End Site
                                        {
                                            OFFSET   2.273050   0.000000   0.000000
                                        }
                                    }
                                }
                            }
                            JOINT LeftFinger4
                            {
                                OFFSET   7.435090   0.000000  -3.252850
                                CHANNELS 3 Zrotation Xrotation Yrotation
                                JOINT LeftFinger41
                                {
                                    OFFSET   3.717550   0.000000   0.000000
                                    CHANNELS 3 Zrotation Xrotation Yrotation
                                    JOINT LeftFinger42
                                    {
                                        OFFSET   1.858760   0.000000   0.000000
                                        CHANNELS 3 Zrotation Xrotation Yrotation
                                        End Site
                                        {
                                            OFFSET   1.818440   0.000000   0.000000
                                        }
                                    }
                                }
                            }
                        }
                    }
                }
            }
            JOINT RightCollar
            {
                OFFSET  -3.911900  19.017000  -0.467062
                CHANNELS 3 Zrotation Xrotation Yrotation
                JOINT RightShoulder
                {
                    OFFSET -10.383700   0.000015   0.000000
                    CHANNELS 3 Zrotation Xrotation Yrotation
                    JOINT RightElbow
                    {
                        OFFSET -26.662100   0.001341   0.000385
                        CHANNELS 3 Zrotation Xrotation Yrotation
                        JOINT RightWrist
                        {
                            OFFSET -28.869000   0.000025  -0.000080
                            CHANNELS 3 Zrotation Xrotation Yrotation
                            JOINT RightFinger0
                            {
                                OFFSET  -2.044650  -2.323490   3.252850
                                CHANNELS 3 Zrotation Xrotation Yrotation
                                JOINT RightFinger01
                                {
                                    OFFSET  -3.088130   0.000000   0.000000
                                    CHANNELS 3 Zrotation Xrotation Yrotation
                                    JOINT RightFinger02
                                    {
                                        OFFSET  -2.639460   0.000000   0.000000
                                        CHANNELS 3 Zrotation Xrotation Yrotation
                                        End Site
                                        {
                                            OFFSET  -2.582190   0.000000   0.000000
                                        }
                                    }
                                }
                            }
                            JOINT RightFinger1
                            {
                                OFFSET  -8.364480   0.000000   3.252850
                                CHANNELS 3 Zrotation Xrotation Yrotation
                                JOINT RightFinger11
                                {
                                    OFFSET  -4.646930   0.000000   0.000000
                                    CHANNELS 3 Zrotation Xrotation Yrotation
                                    JOINT RightFinger12
                                    {
                                        OFFSET  -2.323470   0.000000   0.000000
                                        CHANNELS 3 Zrotation Xrotation Yrotation
                                        End Site
                                        {
                                            OFFSET  -2.273050   0.000000   0.000000
                                        }
                                    }
                                }
                            }
                            JOINT RightFinger2
                            {
                                OFFSET  -8.364480   0.000000   1.078090
                                CHANNELS 3 Zrotation Xrotation Yrotation
                                JOINT RightFinger21
                                {
                                    OFFSET  -5.111610   0.000000   0.000000
                                    CHANNELS 3 Zrotation Xrotation Yrotation
                                    JOINT RightFinger22
                                    {
                                        OFFSET  -2.788160   0.000000   0.000000
                                        CHANNELS 3 Zrotation Xrotation Yrotation
                                        End Site
                                        {
                                            OFFSET  -2.727660   0.000000   0.000000
                                        }
                                    }
                                }
                            }
                            JOINT RightFinger3
                            {
                                OFFSET  -7.899780   0.000000  -1.078090
                                CHANNELS 3 Zrotation Xrotation Yrotation
                                JOINT RightFinger31
                                {
                                    OFFSET  -4.646920   0.000000   0.000000
                                    CHANNELS 3 Zrotation Xrotation Yrotation
                                    JOINT RightFinger32
                                    {
                                        OFFSET  -2.323470   0.000000   0.000000
                                        CHANNELS 3 Zrotation Xrotation Yrotation
                                        End Site
                                        {
                                            OFFSET  -2.273050   0.000000   0.000000
                                        }
                                    }
                                }
                            }
                            JOINT RightFinger4
                            {
                                OFFSET  -7.435090   0.000000  -3.252850
                                CHANNELS 3 Zrotation Xrotation Yrotation
                                JOINT RightFinger41
                                {
                                    OFFSET  -3.717550   0.000000   0.000000
                                    CHANNELS 3 Zrotation Xrotation Yrotation
                                    JOINT RightFinger42
                                    {
                                        OFFSET  -1.858770   0.000000   0.000000
                                        CHANNELS 3 Zrotation Xrotation Yrotation
                                        End Site
                                        {
                                            OFFSET  -1.818440   0.000000   0.000000
                                        }
                                    }
                                }
                            }
                        }
                    }
                }
            }
        }
    }
    JOINT LeftHip
    {
        OFFSET   9.783010   0.000000   0.000000
        CHANNELS 3 Zrotation Xrotation Yrotation
        JOINT LeftKnee
        {
            OFFSET   0.000070 -41.789100   0.000028
            CHANNELS 3 Zrotation Xrotation Yrotation
            JOINT LeftAnkle
            {
                OFFSET   0.000087 -41.133200  -0.000100
                CHANNELS 3 Zrotation Xrotation Yrotation
                JOINT LeftToe
                {
                    OFFSET   0.000000  -6.358960  14.674500
                    CHANNELS 3 Zrotation Xrotation Yrotation
                    End Site
                    {
                        OFFSET   0.000000   0.000000   3.913200
                    }
                }
            }
        }
    }
    JOINT RightHip
    {
        OFFSET  -9.783020   0.000000   0.000000
        CHANNELS 3 Zrotation Xrotation Yrotation
        JOINT RightKnee
        {
            OFFSET   0.000044 -41.789100  -0.000870
            CHANNELS 3 Zrotation Xrotation Yrotation
            JOINT RightAnkle
            {
                OFFSET  -0.000090 -41.133200  -0.000245
                CHANNELS 3 Zrotation Xrotation Yrotation
                JOINT RightToe
                {
                    OFFSET   0.000000  -6.358960  14.674500
                    CHANNELS 3 Zrotation Xrotation Yrotation
                    End Site
                    {
                        OFFSET   0.000000   0.000000   3.913200
                    }
                }
            }
        }
    }
}
MOTION
Frames: 5
Frame Time:   0.016667
 -0.053715  89.601400  -1.809870  -2.491800  -6.554790  -1.421640   0.734275   3.437910   0.749863   1.427200   6.884880   1.459390   0.778454   0.098250  -0.006586   1.278800   0.199501   0.561210  -4.289800   0.020247   0.146039 -75.091500  17.424100  -0.695465  -1.118300  -2.314940 -15.942200  17.922300 -13.019800   6.460690  40.868500  32.072100 -61.510800 -28.406400   0.006092   0.010101  -9.207080   0.003192   0.011191 -32.562600   7.242660 -11.164300 -27.221200  -0.005447  -0.008923 -19.054800   0.005306  -0.007118 -28.700200   0.870899  -1.574980 -39.282100   0.001116   0.003134 -26.161900  -0.005724   0.000000 -28.533300   0.866153  -1.577550 -36.613700   0.001635   0.002648 -24.384700  -0.005885  -0.002432 -32.951300   0.683361  -1.063340 -49.436400  -0.001489   0.001938 -32.924600   0.002424  -0.003535   9.030030   1.211070   4.632280  72.005800  10.095600  -7.158650  -2.086980  -2.664540  14.174100 -17.003900  -7.326010  -5.327790 -40.661400  28.384900  67.330200  21.764200   0.000809  -0.000613   5.882090   0.004013  -0.013265  30.860100   6.941340  11.433900  25.818400  -0.002520  -0.013189  18.072900  -0.001577  -0.008645  28.626100   1.129390   2.081290  38.007500   0.004852  -0.000385  25.313000  -0.010907   0.000193  28.454800   1.123580   2.084390  35.970300  -0.005128  -0.001878  23.956200  -0.000553  -0.000586  39.894000  -1.031210  -1.235220  59.857300  -0.012876   0.000000  39.865000  -0.010694   0.001856   2.415490   8.314790   2.956390   1.385210   0.000135   9.055710  -1.856790  -2.645700   2.243300  -0.000000   0.000000   0.000000   3.500300   7.151960  -4.422040  -1.372970   1.500180  -9.383750   0.384445  -3.114360   1.288960   0.000000   0.000000   0.000000
 -0.053655  89.601400  -1.820320  -2.491760  -6.564800  -1.421010   0.734369   3.449640   0.749843   1.427250   6.908360   1.459340   0.778093   0.091693  -0.006577   1.278220   0.186073   0.570590  -4.289950   0.020095   0.147556 -75.072000  17.432800  -0.709967  -1.121900  -2.327710 -15.942300  17.923300 -13.027100   6.461300  40.861400  32.064500 -61.510000 -28.401000   0.014017   0.011428  -9.207300   0.007160   0.011147 -32.563700   7.247070 -11.172800 -27.223300  -0.005464  -0.008950 -19.056300   0.005300  -0.007139 -28.700200   0.870896  -1.581420 -39.284600   0.001118   0.003133 -26.163600  -0.005724   0.000042 -28.533200   0.866151  -1.584000 -36.616200   0.001635   0.002647 -24.386400  -0.005884  -0.002412 -32.952800   0.683342  -1.063370 -49.438600  -0.001489   0.001910 -32.926100   0.002420  -0.003645   9.026190   1.211090   4.638220  71.998500  10.123400  -7.146290  -2.078210  -2.690300  14.174400 -16.989600  -7.314800  -5.327650 -40.652800  28.388100  67.328200  21.782800   0.000802  -0.000603   5.891390   0.004012  -0.013279  30.854700   6.936780  11.429000  25.813300  -0.002516  -0.013197  18.069400  -0.001571  -0.008639  28.626100   1.129390   2.081220  38.003000   0.004854  -0.000370  25.310100  -0.010921   0.000200  28.454900   1.123580   2.084340  35.957600  -0.005130  -0.001866  23.947800  -0.000549  -0.000578  39.884900  -1.031330  -1.235350  59.843800  -0.012901   0.000000  39.855900  -0.010706   0.001863   2.414830   8.319420   2.956540   1.385000   0.000378   9.055050  -1.857100  -2.638380   2.243280  -0.000000   0.000000   0.000000   3.506760   7.145300  -4.425750  -1.378760   1.510080  -9.377890   0.383988  -3.109310   1.280860   0.000000   0.000000   0.000000
 -0.053595  89.601300  -1.838070  -2.491470  -6.583000  -1.416460   0.734470   3.469730   0.749648   1.427240   6.948550   1.458620   0.777732   0.081712  -0.006561   1.277700   0.165679   0.586319  -4.290170   0.019943   0.152954 -75.039000  17.454100  -0.735724  -1.129130  -2.353200 -15.942600  17.924900 -13.040400   6.462080  40.855800  32.054700 -61.511800 -28.395500   0.025349   0.013758  -9.207610   0.012559   0.011059 -32.569000   7.253750 -11.181400 -27.229100  -0.005504  -0.009018 -19.060400   0.005286  -0.007192 -28.700100   0.870890  -1.590300 -39.293400   0.001121   0.003133 -26.169400  -0.005723   0.000128 -28.533100   0.866147  -1.592890 -36.623400   0.001634   0.002646 -24.391200  -0.005883  -0.002368 -32.957300   0.683295  -1.063430 -49.445300  -0.001488   0.001856 -32.930600   0.002409  -0.003827   9.019720   1.211100   4.650540  71.985200  10.170400  -7.124230  -2.066390  -2.717070  14.174700 -16.974800  -7.296570  -5.327430 -40.642400  28.394900  67.322500  21.811400   0.000782  -0.000577   5.905690   0.004012  -0.013313  30.843900   6.929010  11.421300  25.803500  -0.002505  -0.013217  18.062500  -0.001559  -0.008624  28.626100   1.129390   2.080770  37.993100   0.004862  -0.000332  25.303500  -0.010956   0.000219  28.455000   1.123590   2.083930  35.933700  -0.005135  -0.001835  23.931900  -0.000539  -0.000561  39.869400  -1.031460  -1.235480  59.820700  -0.012962   0.000000  39.840500  -0.010739   0.001878   2.414180   8.324050   2.956690   1.384570   0.002080   9.050990  -1.857540  -2.631060   2.243250   0.000000   0.000000   0.000000   3.516480   7.135540  -4.431490  -1.386430   1.526920  -9.368270   0.382968  -3.101700   1.263390   0.000000   0.000000   0.000000
 -0.056128  89.601200  -1.853000  -2.490450  -6.600830  -1.403310   0.734523   3.487150   0.747851   1.427340   6.983380   1.454640   0.779162   0.075128  -0.006549   1.280090   0.152456   0.602333  -4.290260   0.020413   0.164749 -75.012200  17.486000  -0.760863  -1.137960  -2.383350 -15.947200  17.921800 -13.056700   6.459870  40.850200  32.049300 -61.518600 -28.401700   0.031048   0.016445  -9.207750   0.014117   0.010945 -32.583800   7.258220 -11.181200 -27.241500  -0.005565  -0.009121 -19.069100   0.005261  -0.007274 -28.700000   0.870808  -1.592760 -39.316000   0.001121   0.003133 -26.184400  -0.005724   0.000236 -28.533100   0.866073  -1.595350 -36.639600   0.001636   0.002646 -24.402000  -0.005886  -0.002305 -32.967900   0.683226  -1.063520 -49.461300  -0.001487   0.001785 -32.941300   0.002392  -0.004007   9.013130   1.210370   4.667180  71.970500  10.207200  -7.103810  -2.059500  -2.717820  14.168400 -16.976400  -7.282060  -5.332700 -40.645400  28.404200  67.307500  21.829700   0.000746  -0.000532   5.914840   0.004012  -0.013362  30.827700   6.921840  11.416100  25.789600  -0.002482  -0.013243  18.052700  -0.001551  -0.008601  28.626300   1.129390   2.076270  37.976000   0.004875  -0.000277  25.292000  -0.011009   0.000247  28.455100   1.123580   2.079470  35.901100  -0.005144  -0.001786  23.910100  -0.000523  -0.000536  39.852900  -1.030600  -1.234590  59.796000  -0.013055   0.000000  39.824100  -0.010786   0.001906   2.416210   8.303520   2.956320   1.387430   0.058980   9.041630  -1.865020  -2.649750   2.239860  -0.000000   0.000000  -0.000000   3.521530   7.131120  -4.435890  -1.388060   1.539650  -9.359640   0.381378  -3.096440   1.241390  -0.000000   0.000000   0.000000
 -0.060435  89.601100  -1.868260  -2.488950  -6.620300  -1.382970   0.734460   3.504760   0.746235   1.427050   7.018560   1.451400   0.785104   0.070860  -0.006533   1.289830   0.143770   0.611998  -4.290300   0.021943   0.177096 -74.983100  17.524000  -0.785504  -1.147930  -2.416500 -15.958000  17.912700 -13.067900   6.454440  40.840400  32.047000 -61.523600 -28.408000   0.033341   0.018128  -9.207790   0.014649   0.010846 -32.594500   7.260420 -11.180900 -27.250200  -0.005638  -0.009244 -19.075200   0.005234  -0.007373 -28.700100   0.870691  -1.594490 -39.332300   0.001121   0.003134 -26.195300  -0.005725   0.000349 -28.533200   0.865967  -1.597080 -36.651200   0.001640   0.002646 -24.409700  -0.005891  -0.002238 -32.975500   0.683138  -1.063570 -49.472800  -0.001486   0.001722 -32.948900   0.002370  -0.004115   9.009110   1.208980   4.683390  71.957200  10.248900  -7.080990  -2.052000  -2.718690  14.152200 -16.981700  -7.269690  -5.341820 -40.642500  28.406800  67.292100  21.844100   0.000700  -0.000484   5.922080   0.004012  -0.013421  30.817600   6.915630  11.411500  25.780400  -0.002454  -0.013275  18.046300  -0.001540  -0.008571  28.626600   1.129390   2.068880  37.964300   0.004892  -0.000209  25.284200  -0.011077   0.000281  28.455000   1.123510   2.072080  35.879800  -0.005155  -0.001727  23.895900  -0.000504  -0.000507  39.842900  -1.028980  -1.232890  59.780900  -0.013171   0.000000  39.814100  -0.010854   0.001925   2.420120   8.282980   2.955950   1.390540   0.114424   9.028510  -1.872560  -2.668440   2.232610   0.000000   0.000000   0.000000   3.526370   7.127140  -4.438240  -1.388000   1.555700  -9.353740   0.379553  -3.093770   1.213960  -0.000000   0.000000   0.000000
